# xmcd
#
# Track frame offsets:
#	150
#	9802
#	19450
#	31725
#	45000
#	54837
#	63202
#	77662
#	88512
#	103400
#	118862
#
# Disc length: 1763 seconds
#
# Revision: 1
# Processed by: cddbd v1.4PL0 Copyright (c) Steve Scherf et al.
# Submitted via: audiograbber 1.82.00
#
DISCID=7606e10b
DTITLE=Anne Murray - It's All Over
DYEAR=1900
DGENRE=
TTITLE0=Some Birds
TTITLE1=It's All Over
TTITLE2=All The Time
TTITLE3=Buffalo In The Park
TTITLE4=For Baby
TTITLE5=Paths Of Victory
TTITLE6=David's Song
TTITLE7=The Last Thing On My Mind
TTITLE8=Both Sides Now
TTITLE9=There Goes My Everything
TTITLE10=What About Me
EXTD=
EXTT0=
EXTT1=
EXTT2=
EXTT3=
EXTT4=
EXTT5=
EXTT6=
EXTT7=
EXTT8=
EXTT9=
EXTT10=
PLAYORDER=
